<?xml version="1.0" encoding="utf-8"?>
<!-- Generator: Adobe Illustrator 16.0.0, SVG Export Plug-In . SVG Version: 6.00 Build 0)  -->
<!DOCTYPE svg PUBLIC "-//W3C//DTD SVG 1.1//EN" "http://www.w3.org/Graphics/SVG/1.1/DTD/svg11.dtd">
<svg version="1.1" id="_x2014_ÎÓÈ_x5F_1" xmlns="http://www.w3.org/2000/svg" xmlns:xlink="http://www.w3.org/1999/xlink"
	 x="0px" y="0px" width="500px" height="350px" viewBox="0 0 500 350" enable-background="new 0 0 500 350" xml:space="preserve">
<path fill="#0CA3F3" d="M302.452,9.567L302.452,9.567c-12.755,12.756-12.755,33.437,0,46.192l86.579,86.578H32.663
	C14.624,142.337,0,156.96,0,175l0,0c0,18.04,14.624,32.663,32.663,32.663h355.27l-86.578,86.579
	c-12.756,12.755-12.756,33.437,0,46.191v0.001c12.756,12.755,33.437,12.755,46.192,0l142.887-142.887
	c12.755-12.756,12.755-33.437,0-46.192L348.645,9.566C335.889-3.189,315.208-3.189,302.452,9.567z"/>
</svg>
