<?xml version="1.0" encoding="utf-8"?>
<!-- Generator: Adobe Illustrator 16.0.0, SVG Export Plug-In . SVG Version: 6.00 Build 0)  -->
<!DOCTYPE svg PUBLIC "-//W3C//DTD SVG 1.1//EN" "http://www.w3.org/Graphics/SVG/1.1/DTD/svg11.dtd">
<svg version="1.1" id="_x2014_ÎÓÈ_x5F_1" xmlns="http://www.w3.org/2000/svg" xmlns:xlink="http://www.w3.org/1999/xlink"
	 x="0px" y="0px" width="500px" height="350px" viewBox="0 0 500 350" enable-background="new 0 0 500 350" xml:space="preserve">
<path fill="#0CA3F3" d="M197.548,340.433L197.548,340.433c12.755-12.756,12.755-33.438,0-46.192l-86.579-86.578h356.369
	C485.377,207.662,500,193.039,500,175l0,0c0-18.04-14.623-32.663-32.662-32.663H112.067l86.578-86.579
	c12.756-12.754,12.756-33.437,0-46.19V9.566c-12.756-12.755-33.437-12.755-46.191,0L9.567,152.453
	c-12.756,12.756-12.756,33.437,0,46.192l141.789,141.789C164.112,353.189,184.792,353.189,197.548,340.433z"/>
</svg>
