<?xml version="1.0" encoding="utf-8"?>
<!-- Generator: Adobe Illustrator 16.0.0, SVG Export Plug-In . SVG Version: 6.00 Build 0)  -->
<!DOCTYPE svg PUBLIC "-//W3C//DTD SVG 1.1//EN" "http://www.w3.org/Graphics/SVG/1.1/DTD/svg11.dtd">
<svg version="1.1" id="Layer_1" xmlns="http://www.w3.org/2000/svg" xmlns:xlink="http://www.w3.org/1999/xlink" x="0px" y="0px"
	 width="1408px" height="1408px" viewBox="0 0 1408 1408" enable-background="new 0 0 1408 1408" xml:space="preserve">
<g>
	<path fill="#FFFFFF" d="M1161.033,317.281H246.97c-58.005,0-105.47,47.465-105.47,105.468v82.02v175.782v304.698
		c0,58.006,47.465,105.47,105.47,105.47h914.063c58.002,0,105.467-47.464,105.467-105.47V680.551V504.769v-82.02
		C1266.5,364.746,1219.035,317.281,1161.033,317.281z M1213.768,985.249c0,29.079-23.656,52.736-52.734,52.736H246.97
		c-29.081,0-52.734-23.657-52.734-52.736V680.551h1019.532V985.249z M1213.768,504.769H194.236v-82.02
		c0-29.079,23.653-52.733,52.734-52.733h914.063c29.078,0,52.734,23.654,52.734,52.733V504.769z"/>
	<path fill="#FFFFFF" d="M953.834,930.807H1073.5c15.031,0,27.221-9.219,27.221-20.59V819.7c0-11.37-12.189-20.59-27.221-20.59
		H953.834c-15.035,0-27.223,9.22-27.223,20.59v90.517C926.612,921.588,938.799,930.807,953.834,930.807z"/>
</g>
</svg>
