<?xml version="1.0" encoding="utf-8"?>
<!-- Generator: Adobe Illustrator 16.0.0, SVG Export Plug-In . SVG Version: 6.00 Build 0)  -->
<!DOCTYPE svg PUBLIC "-//W3C//DTD SVG 1.1//EN" "http://www.w3.org/Graphics/SVG/1.1/DTD/svg11.dtd">
<svg version="1.1" id="Layer_1" xmlns="http://www.w3.org/2000/svg" xmlns:xlink="http://www.w3.org/1999/xlink" x="0px" y="0px"
	 width="100.113px" height="100.114px" viewBox="0 0 100.113 100.114" enable-background="new 0 0 100.113 100.114"
	 xml:space="preserve">
<g>
	<path fill="#e93e4c" d="M93.402,24.93c-4.477-7.668-10.547-13.738-18.219-18.215C67.516,2.239,59.141,0,50.059,0
		c-9.082,0-17.457,2.239-25.125,6.715C17.262,11.188,11.191,17.262,6.715,24.93C2.238,32.602,0,40.977,0,50.059
		c0,9.079,2.238,17.454,6.715,25.126c4.476,7.668,10.547,13.741,18.215,18.215c7.672,4.476,16.047,6.715,25.129,6.715
		c9.082,0,17.457-2.239,25.125-6.715c7.668-4.474,13.742-10.547,18.219-18.215c4.473-7.672,6.711-16.047,6.711-25.126
		C100.113,40.977,97.875,32.598,93.402,24.93L93.402,24.93z M73.652,61.856c0.824,0.824,1.238,1.801,1.238,2.933
		c0,1.172-0.414,2.172-1.238,2.997l-5.867,5.867c-0.824,0.824-1.824,1.238-2.996,1.238c-1.129,0-2.109-0.414-2.934-1.238
		L50.059,61.856L38.262,73.653c-0.828,0.824-1.805,1.238-2.934,1.238c-1.176,0-2.172-0.414-3-1.238l-5.867-5.867
		c-0.824-0.825-1.238-1.825-1.238-2.997c0-1.132,0.414-2.108,1.238-2.933l11.801-11.798l-11.801-11.8
		c-0.824-0.824-1.238-1.801-1.238-2.929c0-1.176,0.414-2.176,1.238-3l5.867-5.868c0.828-0.824,1.824-1.238,3-1.238
		c1.129,0,2.106,0.414,2.934,1.238l11.797,11.797l11.796-11.797c0.824-0.824,1.805-1.238,2.934-1.238
		c1.172,0,2.172,0.414,2.996,1.238l5.867,5.868c0.824,0.824,1.238,1.824,1.238,3c0,1.128-0.414,2.105-1.238,2.929l-11.797,11.8
		L73.652,61.856z M73.652,61.856"/>
</g>
</svg>
