<?xml version="1.0" encoding="utf-8"?>
<!-- Generator: Adobe Illustrator 16.0.0, SVG Export Plug-In . SVG Version: 6.00 Build 0)  -->
<!DOCTYPE svg PUBLIC "-//W3C//DTD SVG 1.1//EN" "http://www.w3.org/Graphics/SVG/1.1/DTD/svg11.dtd">
<svg version="1.1" id="Layer_1" xmlns="http://www.w3.org/2000/svg" xmlns:xlink="http://www.w3.org/1999/xlink" x="0px" y="0px"
	 width="319.072px" height="464.893px" viewBox="0 0 319.072 464.893" enable-background="new 0 0 319.072 464.893"
	 xml:space="preserve">
<g>
	<path fill="#FFFFFF" d="M284.45,125.877l-2.624,1.532c-17.811,10.397-39.8,10.196-57.393-0.522
		c-17.59-10.719-27.85-30.171-26.775-50.765l0.157-3.034l-34.49-21.017L0.778,318.825l34.492,21.018l2.624-1.532
		c17.81-10.396,39.801-10.196,57.392,0.523c17.591,10.719,27.851,30.171,26.776,50.765l-0.158,3.034l34.491,21.017l162.546-266.756
		L284.45,125.877z M132.324,387.054c0.141-23.185-11.825-44.785-31.739-56.919C80.672,318,55.99,317.269,35.45,328.024
		l-20.672-12.596l102.397-168.046l22.607,13.776l5.301-8.699l-22.607-13.776l44.246-72.614l20.672,12.596
		c-0.14,23.185,11.825,44.785,31.739,56.919c19.913,12.134,44.596,12.865,65.135,2.111l20.674,12.597l-44.247,72.614l-22.608-13.775
		l-5.301,8.699l22.607,13.776L152.996,399.651L132.324,387.054z"/>
	
		<rect x="151.84" y="167.787" transform="matrix(-0.854 -0.5203 0.5203 -0.854 223.0064 408.3515)" fill="#FFFFFF" width="33.937" height="10.187"/>
	
		<rect x="192.225" y="192.396" transform="matrix(-0.854 -0.5203 0.5203 -0.854 285.0732 474.9883)" fill="#FFFFFF" width="33.937" height="10.187"/>
</g>
</svg>
