<?xml version="1.0" encoding="utf-8"?>
<!-- Generator: Adobe Illustrator 16.0.0, SVG Export Plug-In . SVG Version: 6.00 Build 0)  -->
<!DOCTYPE svg PUBLIC "-//W3C//DTD SVG 1.1//EN" "http://www.w3.org/Graphics/SVG/1.1/DTD/svg11.dtd">
<svg version="1.1" id="Layer_1" xmlns="http://www.w3.org/2000/svg" xmlns:xlink="http://www.w3.org/1999/xlink" x="0px" y="0px"
	 width="1408px" height="1408px" viewBox="0 0 1408 1408" enable-background="new 0 0 1408 1408" xml:space="preserve">
<g>
	<path fill="#FFFFFF" d="M904.168,543.865H503.832c-11.011,0-20.017,9.018-20.017,20.017c0,11.025,9.005,20.017,20.017,20.017
		h400.336c11.013,0,20.017-8.992,20.017-20.017C924.185,552.883,915.181,543.865,904.168,543.865z M904.168,663.966H503.832
		c-11.011,0-20.017,9.018-20.017,20.017c0,11.025,9.005,20.017,20.017,20.017h400.336c11.013,0,20.017-8.992,20.017-20.017
		C924.185,672.984,915.181,663.966,904.168,663.966z M904.168,784.067H503.832c-11.011,0-20.017,9.018-20.017,20.017
		c0,11.025,9.005,20.017,20.017,20.017h400.336c11.013,0,20.017-8.991,20.017-20.017
		C924.185,793.085,915.181,784.067,904.168,784.067z M1044.286,383.731c-24.146-18.167-52.439-30.977-83.403-36.698
		c-5.733-30.977-18.545-59.268-36.698-83.403c-36.566-48.583-94.741-80.067-160.134-80.067H323.68
		c-22.154,0-40.034,17.867-40.034,40.034v960.808c0,22.141,17.88,40.033,40.034,40.033h760.639
		c22.103,0,40.034-17.919,40.034-40.033V543.865C1124.354,478.458,1092.856,420.285,1044.286,383.731z M1044.286,1144.37H363.714
		V263.63h400.337c54.042,0,99.953,36.02,114.901,85.241c3.336,11.09,5.199,22.701,5.199,34.86c0,18.518-4.275,36.02-11.742,51.762
		c15.743-7.467,33.231-11.728,51.775-11.728c12.147,0,23.758,1.851,34.834,5.174c49.234,14.96,85.268,60.872,85.268,114.927V1144.37
		z"/>
</g>
</svg>
