<?xml version="1.0" encoding="utf-8"?>
<!-- Generator: Adobe Illustrator 16.0.4, SVG Export Plug-In . SVG Version: 6.00 Build 0)  -->
<!DOCTYPE svg PUBLIC "-//W3C//DTD SVG 1.1//EN" "http://www.w3.org/Graphics/SVG/1.1/DTD/svg11.dtd">
<svg version="1.1" id="Layer_1" xmlns="http://www.w3.org/2000/svg" xmlns:xlink="http://www.w3.org/1999/xlink" x="0px" y="0px"
	 width="194.559px" height="194.559px" viewBox="0 0 194.559 194.559" enable-background="new 0 0 194.559 194.559"
	 xml:space="preserve">
<path fill="#FFFFFF" d="M97.275,0C43.548,0,0,43.553,0,97.279c0,53.728,43.548,97.279,97.275,97.279
	c53.732,0,97.283-43.552,97.283-97.279C194.559,43.553,151.008,0,97.275,0z M125.041,59.569l-10.066,0.005
	c-7.891,0-9.418,3.75-9.418,9.252v12.136h18.82l-2.451,19.007h-16.369v48.769H85.93V99.969H69.518V80.962H85.93V66.945
	c0-16.267,9.934-25.123,24.445-25.123c6.949,0,12.924,0.517,14.666,0.748V59.569z"/>
</svg>
