<?xml version="1.0" encoding="utf-8"?>
<!-- Generator: Adobe Illustrator 16.0.0, SVG Export Plug-In . SVG Version: 6.00 Build 0)  -->
<!DOCTYPE svg PUBLIC "-//W3C//DTD SVG 1.1//EN" "http://www.w3.org/Graphics/SVG/1.1/DTD/svg11.dtd">
<svg version="1.1" id="Layer_1" xmlns="http://www.w3.org/2000/svg" xmlns:xlink="http://www.w3.org/1999/xlink" x="0px" y="0px"
	 width="284.53px" height="249.728px" viewBox="0 0 284.53 249.728" enable-background="new 0 0 284.53 249.728"
	 xml:space="preserve">
<path fill="#FFFFFF" d="M284.53,82.448C284.53,36.915,250.554,0,208.642,0c-28.566,0-53.431,17.158-66.382,42.495
	C129.315,17.158,104.448,0,75.881,0C33.972,0,0,36.915,0,82.448c0,22.68,8.428,43.217,22.068,58.123h-0.003l0.009,0.006
	c10.822,12.65,120.186,109.151,120.186,109.151s109.079-96.059,120.031-108.969l0.016-0.019H262.3
	C276.032,125.823,284.53,105.219,284.53,82.448z M60.644,35.637C42.302,45.64,35.171,55.165,30.733,75.585
	c-0.956,4.387-4.603,7.848-8.807,7.522c-4.208-0.326-7.33-5.258-6.134-10.765c5.568-25.614,14.53-37.579,37.544-50.125
	c4.947-2.695,10.553-1.094,12.049,2.854C66.885,29.013,64.589,33.486,60.644,35.637z"/>
</svg>
