<?xml version="1.0" encoding="utf-8"?>
<!-- Generator: Adobe Illustrator 16.0.0, SVG Export Plug-In . SVG Version: 6.00 Build 0)  -->
<!DOCTYPE svg PUBLIC "-//W3C//DTD SVG 1.1//EN" "http://www.w3.org/Graphics/SVG/1.1/DTD/svg11.dtd">
<svg version="1.1" id="Layer_1" xmlns="http://www.w3.org/2000/svg" xmlns:xlink="http://www.w3.org/1999/xlink" x="0px" y="0px"
	 width="1408px" height="1408px" viewBox="0 0 1408 1408" enable-background="new 0 0 1408 1408" xml:space="preserve">
<g>
	<path fill="#FFFFFF" d="M704.209,869.416L560.982,743.941l-409.108,350.606c14.921,14.124,34.691,22.596,56.88,22.596h990.494
		c22.188,0,41.959-8.472,56.89-22.596L847.03,743.941L704.209,869.416z M704.209,869.416"/>
	<path fill="#FFFFFF" d="M1256.137,313.452c-14.524-14.124-34.701-22.596-56.89-22.596H208.753c-21.782,0-41.958,8.472-56.88,22.596
		l552.335,473.256L1256.137,313.452z M1256.137,313.452"/>
	<path fill="#FFFFFF" d="M125.639,363.481v686.282l399.432-339.411L125.639,363.481z M125.639,363.481"/>
	<path fill="#FFFFFF" d="M882.94,710.353l399.422,339.411V363.075L882.94,710.353z M882.94,710.353"/>
</g>
</svg>
