<?xml version="1.0" encoding="utf-8"?>
<!-- Generator: Adobe Illustrator 16.0.0, SVG Export Plug-In . SVG Version: 6.00 Build 0)  -->
<!DOCTYPE svg PUBLIC "-//W3C//DTD SVG 1.1//EN" "http://www.w3.org/Graphics/SVG/1.1/DTD/svg11.dtd">
<svg version="1.1" id="Layer_1" xmlns="http://www.w3.org/2000/svg" xmlns:xlink="http://www.w3.org/1999/xlink" x="0px" y="0px"
	 width="60px" height="60px" viewBox="0 0 60 60" enable-background="new 0 0 60 60" xml:space="preserve">
<path fill="#009EF2" d="M47.715,43.179L43.861,23.46c-0.019-0.091-0.053-0.177-0.104-0.254c-2.023-3.117-6.062-3.971-8.475-4.48
	c-0.337-0.071-0.673,0.104-0.81,0.419l-0.051,0.118c-0.061,0.149-0.114,0.298-0.171,0.447l-3.81-1.074
	c0.063-0.679,0.228-0.81,0.848-1.298c0.153-0.122,0.326-0.258,0.52-0.419c0.591-0.493,0.93-1.286,0.93-2.176
	c0-1.662-1.354-3.015-3.017-3.015c-1.663,0-3.015,1.353-3.015,3.015c0,0.381,0.31,0.69,0.691,0.69s0.691-0.31,0.691-0.69
	c0-0.9,0.732-1.633,1.633-1.633c0.902,0,1.636,0.732,1.636,1.633c0,0.472-0.162,0.888-0.435,1.115
	c-0.183,0.152-0.345,0.28-0.491,0.395c-0.852,0.672-1.252,1.043-1.372,2.366l-3.355,0.947l-0.182-0.423
	c-0.136-0.314-0.476-0.489-0.81-0.418c-2.77,0.587-6.661,1.69-8.473,4.48c-0.05,0.077-0.085,0.163-0.103,0.254l-3.854,19.719
	c-0.069,0.354,0.134,0.704,0.476,0.819l4.838,1.635c0.193,0.064,0.404,0.047,0.582-0.053c0.177-0.1,0.305-0.27,0.35-0.468
	l1.863-8.132v10.571c0,0.397,0.323,0.72,0.72,0.72h17.771c0.397,0,0.72-0.322,0.72-0.72v-10.57l1.862,8.131
	c0.046,0.198,0.173,0.368,0.351,0.468c0.178,0.099,0.388,0.118,0.582,0.053l4.838-1.635C47.58,43.883,47.783,43.532,47.715,43.179z
	 M29.722,19.868l4.037,1.139c-0.69,1.794-1.392,3.037-3.718,3.037H30.04c-1.977-0.019-2.948-1.449-3.766-3.202L29.722,19.868z
	 M42.694,44.014l-3.106-13.561c-0.082-0.357-0.425-0.596-0.783-0.555c-0.364,0.041-0.639,0.35-0.639,0.716v16.218H21.835V30.615
	c0-0.366-0.275-0.675-0.639-0.716c-0.368-0.049-0.701,0.197-0.783,0.555l-3.107,13.56l-3.486-1.178l3.705-18.958
	c1.553-2.245,5.131-3.217,6.912-3.618c1,2.335,2.262,5.193,5.664,5.225c3.538,0,4.448-2.454,5.25-4.619
	c0.074-0.2,0.148-0.403,0.226-0.604c2.726,0.604,5.417,1.445,6.898,3.615l3.705,18.959L42.694,44.014z"/>
</svg>
