<?xml version="1.0" encoding="utf-8"?>
<!-- Generator: Adobe Illustrator 16.0.0, SVG Export Plug-In . SVG Version: 6.00 Build 0)  -->
<!DOCTYPE svg PUBLIC "-//W3C//DTD SVG 1.1//EN" "http://www.w3.org/Graphics/SVG/1.1/DTD/svg11.dtd">
<svg version="1.1" id="Layer_1" xmlns="http://www.w3.org/2000/svg" xmlns:xlink="http://www.w3.org/1999/xlink" x="0px" y="0px"
	 width="60px" height="60px" viewBox="0 0 60 60" enable-background="new 0 0 60 60" xml:space="preserve">
<path fill="#009EF2" d="M46.563,24.907h-1.789c-1.016,0-1.936,0.378-2.662,0.982l0.459-9.156c0.044-0.867-0.275-1.707-0.899-2.362
	c-0.655-0.689-1.57-1.085-2.511-1.085H20.837c-0.945,0-1.861,0.394-2.515,1.081c-0.621,0.652-0.939,1.493-0.896,2.366l0.458,9.154
	c-0.726-0.603-1.645-0.98-2.66-0.98h-1.787c-0.636,0-1.153,0.518-1.153,1.154V42.02c0,0.636,0.517,1.153,1.162,1.153h0.879
	c-0.004,0.031-0.019,0.06-0.019,0.092v2.729c0,0.397,0.322,0.72,0.72,0.72h5.033c0.397,0,0.72-0.322,0.72-0.72v-2.821h18.443v2.821
	c0,0.397,0.322,0.72,0.72,0.72h5.031c0.397,0,0.72-0.322,0.72-0.72v-2.729c0-0.032-0.015-0.061-0.019-0.092h0.889
	c0.625,0,1.153-0.528,1.153-1.153V26.062C47.716,25.436,47.188,24.907,46.563,24.907z M19.365,15.359
	c0.383-0.402,0.919-0.634,1.472-0.634H39.16c0.548,0,1.082,0.232,1.467,0.638c0.35,0.367,0.529,0.828,0.506,1.298l-0.844,16.854
	c-2.75-0.59-6.24-0.912-10.008-0.912c-3.825,0-7.522,0.332-10.573,0.938l-0.844-16.881C18.841,16.187,19.019,15.724,19.365,15.359z
	 M19.339,45.274h-3.593v-2.01c0-0.032-0.014-0.061-0.019-0.092h3.612V45.274z M44.253,43.265v2.01h-3.592v-2.102h3.61
	C44.268,43.204,44.253,43.232,44.253,43.265z M46.276,41.733H13.724V26.347h1.501c1.516,0,2.75,1.233,2.75,2.75v5.397
	c0,0.22,0.101,0.428,0.273,0.564c0.172,0.136,0.397,0.189,0.612,0.136c3.143-0.742,7.199-1.151,11.422-1.151
	c4.216,0,8.064,0.407,10.838,1.146c0.219,0.059,0.447,0.012,0.624-0.124c0.178-0.137,0.281-0.348,0.281-0.571v-5.397
	c0-1.517,1.233-2.75,2.749-2.75h1.503V41.733z"/>
</svg>
