<?xml version="1.0" encoding="utf-8"?>
<!-- Generator: Adobe Illustrator 16.0.0, SVG Export Plug-In . SVG Version: 6.00 Build 0)  -->
<!DOCTYPE svg PUBLIC "-//W3C//DTD SVG 1.1//EN" "http://www.w3.org/Graphics/SVG/1.1/DTD/svg11.dtd">
<svg version="1.1" id="Layer_1" xmlns="http://www.w3.org/2000/svg" xmlns:xlink="http://www.w3.org/1999/xlink" x="0px" y="0px"
	 width="60px" height="60px" viewBox="0 0 60 60" enable-background="new 0 0 60 60" xml:space="preserve">
<path fill="#009EF2" d="M45.273,33.361l-3.158-6.633c-0.02-0.04-0.061-0.057-0.087-0.09v-2.253c0-0.709-0.577-1.286-1.286-1.286
	h-8.688c-0.102,0-0.191,0.036-0.286,0.058l-2.751-5.784c-0.02-0.04-0.061-0.056-0.086-0.09v-2.252c0-0.709-0.578-1.286-1.289-1.286
	h-8.686c-0.709,0-1.286,0.577-1.286,1.286v2.484c0,0.003,0.001,0.005,0.001,0.008l-2.949,6.464
	c-0.052,0.111-0.072,0.232-0.063,0.351c0,0.004-0.002,0.007-0.002,0.011l0.014,21.187c0,0.398,0.322,0.721,0.72,0.721h9.82
	c0.014,0,0.025-0.008,0.039-0.008l3.181-0.004c0.021,0.002,0.038,0.012,0.059,0.012h9.819c0.014,0,0.025-0.008,0.039-0.008
	l6.263-0.008c0.396,0,0.719-0.322,0.719-0.719l0.014-11.85C45.343,33.564,45.319,33.459,45.273,33.361z M37.869,32.918h-8.272
	l2.432-5.329h8.377L37.869,32.918z M40.589,26.148h-8.381v-1.609h8.381V26.148z M19.111,15.185h8.38v1.609h-8.38V15.185z
	 M18.93,18.235h8.377l-2.535,5.331h-8.274L18.93,18.235z M16.098,25.006h8.394l0.006,19.811H16.11L16.098,25.006z M25.932,24.479
	l2.436-5.122l2.401,5.048v2.462c0,0.003,0.002,0.005,0.002,0.008l-2.949,6.463c-0.051,0.111-0.071,0.232-0.063,0.352
	c0,0.004-0.002,0.008-0.002,0.012l0.011,11.102l-1.831,0.002L25.932,24.479z M29.197,34.357h8.392l0.006,10.459h-8.387
	L29.197,34.357z M43.891,44.801l-4.856,0.006l-0.006-10.973l2.437-5.121l2.438,5.121L43.891,44.801z"/>
</svg>
