<?xml version="1.0" encoding="utf-8"?>
<!-- Generator: Adobe Illustrator 16.0.0, SVG Export Plug-In . SVG Version: 6.00 Build 0)  -->
<!DOCTYPE svg PUBLIC "-//W3C//DTD SVG 1.1//EN" "http://www.w3.org/Graphics/SVG/1.1/DTD/svg11.dtd">
<svg version="1.1" id="Layer_1" xmlns="http://www.w3.org/2000/svg" xmlns:xlink="http://www.w3.org/1999/xlink" x="0px" y="0px"
	 width="60px" height="60px" viewBox="0 0 60 60" enable-background="new 0 0 60 60" xml:space="preserve">
<path fill="#009EF2" d="M49.105,30.638c0.003-0.044-0.001-0.086-0.011-0.129c-0.12-1.625-0.416-3.238-0.651-4.484
	c-0.118-0.625-0.221-1.169-0.268-1.543c-0.063-0.641-0.563-1.153-1.201-1.231c-0.75-0.11-1.789,0.297-2.304,1.452
	c-0.308,0.693-1.087,1.342-1.897,1.581c-0.379,0.112-0.929,0.183-1.394-0.121c-1.079-0.7-3.522-2.551-4.271-3.126
	c0.078-0.532-0.023-1.075-0.289-1.542c-0.334-0.535-0.879-0.881-1.641-1.03c-1.25-0.246-2.016,0.509-3.173,1.654
	c-0.479,0.49-0.979,0.957-1.494,1.409c-0.193-0.087-0.375-0.17-0.516-0.237c-0.607-0.287-0.991-0.06-1.135,0.224
	c-0.17,0.343-0.026,0.769,0.334,1.104c-0.157,0.122-0.323,0.231-0.482,0.35c-0.287-0.127-0.56-0.251-0.759-0.345
	c-0.607-0.287-0.991-0.059-1.135,0.224c-0.18,0.361-0.003,0.811,0.402,1.153c-0.196,0.126-0.394,0.247-0.593,0.368
	c-0.343-0.151-0.681-0.303-0.916-0.415c-0.607-0.287-0.989-0.059-1.135,0.225c-0.181,0.364,0,0.817,0.41,1.161
	c-0.213,0.121-0.42,0.239-0.626,0.354c-0.333-0.147-0.661-0.294-0.89-0.403c-0.607-0.287-0.991-0.06-1.135,0.224
	c-0.171,0.344-0.026,0.77,0.336,1.106c-1.141,0.611-2.147,1.117-3.029,1.534c-0.019,0.003-0.038-0.002-0.057,0.003
	c-0.08,0.021-0.145,0.065-0.201,0.119c-2.743,1.279-4.28,1.703-5.202,1.957c-0.203,0.056-0.379,0.103-0.534,0.149
	c-0.698,0.214-2.799,0.858-2.799,2.859v2.415c0,0.017,0.009,0.029,0.009,0.045c0.005,0.048,0.011,0.096,0.029,0.138
	c0.199,1.271,2.354,1.742,4.4,1.742h31.926c0.439,0.018,0.867-0.143,1.188-0.445c0.531-0.534,0.531-1.397,0.531-2.09v-0.088
	c0.024-0.488-0.184-0.961-0.562-1.273C49.115,34.341,49.23,32.486,49.105,30.638z M11.784,37.188v-0.875H47.62
	c0.156,0.062,0.385,0.157,0.385,0.639v0.104c0,0.043-0.001,0.089-0.001,0.133H11.784z M33.109,25.864l3.8,4.059
	c0,0,0,0.001,0.001,0.002l5.104,5.453H31.133L26.231,30C28.32,28.747,30.974,27.15,33.109,25.864z M45.531,25.073
	c0.296-0.678,0.882-0.97,1.307-0.907c0.225,0.017,0.402,0.198,0.413,0.424c0.05,0.407,0.153,0.959,0.276,1.599
	c0.178,0.935,0.391,2.09,0.536,3.286l-3.55-3.109C44.958,25.995,45.32,25.546,45.531,25.073z M40.878,26.933
	c0.597,0.39,1.364,0.474,2.166,0.237c0.225-0.066,0.442-0.167,0.656-0.276l4.489,3.933c0.109,1.744-0.033,3.426-0.748,4.552h-4.149
	l-5.323-5.687c-0.003-0.004-0.004-0.008-0.007-0.012l-4.035-4.309c1.219-0.734,2.183-1.315,2.641-1.591
	C37.344,24.37,39.764,26.204,40.878,26.933z M26.486,27.55c0.073-0.042,0.141-0.09,0.213-0.132c0.479,0.208,0.88,0.379,0.912,0.393
	c0.06,0.025,0.123,0.038,0.187,0.037c0.185-0.002,0.351-0.113,0.424-0.284c0.101-0.237-0.01-0.511-0.247-0.612
	c-0.006-0.002-0.129-0.054-0.311-0.132c0.394-0.252,0.778-0.515,1.159-0.785c0.53,0.231,0.995,0.429,1.03,0.444
	c0.059,0.025,0.123,0.037,0.187,0.037c0.185-0.002,0.351-0.114,0.424-0.283c0.101-0.237-0.01-0.511-0.247-0.612
	c-0.008-0.002-0.219-0.093-0.513-0.22c0.327-0.252,0.64-0.523,0.956-0.79c0.61,0.268,1.195,0.517,1.235,0.534
	c0.06,0.025,0.123,0.038,0.188,0.037c0.189,0,0.357-0.114,0.43-0.287c0.1-0.237-0.015-0.51-0.253-0.609
	c-0.011-0.003-0.371-0.156-0.815-0.35c0.416-0.378,0.827-0.762,1.221-1.165c1.014-1.004,1.48-1.431,2.068-1.431
	c0.094,0.003,0.187,0.016,0.276,0.037c0.492,0.095,0.833,0.294,1.021,0.595c0.205,0.327,0.191,0.723,0.161,0.945
	c-1.519,0.92-12.591,7.593-13.796,8.293c-0.443,0.289-0.997,0.349-1.493,0.162c-0.247-0.105-0.445-0.287-0.583-0.51
	c1.159-0.556,2.512-1.254,4.093-2.132c0.5,0.217,0.925,0.399,0.959,0.414c0.059,0.025,0.123,0.038,0.187,0.037
	c0.184-0.002,0.35-0.112,0.425-0.283c0.101-0.237-0.01-0.511-0.247-0.612c-0.006-0.002-0.125-0.053-0.304-0.129
	C25.774,27.961,26.121,27.763,26.486,27.55z M19.469,31.263c0.238,0.43,0.61,0.776,1.073,0.971c0.289,0.124,0.6,0.188,0.913,0.188
	c0.496-0.011,0.981-0.152,1.405-0.41c0.136-0.078,0.396-0.232,0.746-0.439c0.011,0.394-0.086,0.786-0.306,1.124
	c-0.231,0.366-0.638,0.583-1.071,0.571H15.34c-0.403,0-0.665-0.069-0.833-0.159C15.426,32.856,16.92,32.431,19.469,31.263z
	 M13.504,33.418c0.25,0.398,0.788,0.782,1.835,0.782h6.889c0.742,0.012,1.439-0.359,1.846-0.979c0.423-0.645,0.55-1.422,0.398-2.167
	c0.288-0.172,0.603-0.36,0.941-0.563l4.456,4.888H11.784v-0.136C11.784,34.428,12.322,33.855,13.504,33.418z M47.215,38.646H15.289
	c-1.403,0-2.485-0.231-3.056-0.526h35.686c-0.038,0.146-0.089,0.277-0.172,0.361C47.709,38.523,47.589,38.646,47.215,38.646z"/>
</svg>
