<?xml version="1.0" encoding="utf-8"?>
<!-- Generator: Adobe Illustrator 16.0.0, SVG Export Plug-In . SVG Version: 6.00 Build 0)  -->
<!DOCTYPE svg PUBLIC "-//W3C//DTD SVG 1.1//EN" "http://www.w3.org/Graphics/SVG/1.1/DTD/svg11.dtd">
<svg version="1.1" id="Layer_1" xmlns="http://www.w3.org/2000/svg" xmlns:xlink="http://www.w3.org/1999/xlink" x="0px" y="0px"
	 width="1408px" height="1408px" viewBox="0 0 1408 1408" enable-background="new 0 0 1408 1408" xml:space="preserve">
<g>
	<path fill="#FFFFFF" d="M1220.444,972.947c1.965,15.099-2.633,28.241-13.793,39.402l-131.025,130.034
		c-5.91,6.571-13.629,12.151-23.148,16.75c-9.525,4.598-18.887,7.553-28.074,8.866c-0.66,0-2.633,0.165-5.92,0.495
		c-3.277,0.33-7.545,0.495-12.803,0.495c-12.475,0-32.674-2.139-60.584-6.406c-27.92-4.268-62.07-14.776-102.455-31.526
		c-40.393-16.749-86.199-41.87-137.432-75.361c-51.223-33.49-105.74-79.472-163.532-137.918
		c-45.974-45.32-84.064-88.668-114.275-130.043c-30.215-41.374-54.51-79.629-72.903-114.771
		c-18.39-35.134-32.185-66.99-41.374-95.562c-9.197-28.563-15.437-53.195-18.722-73.882c-3.287-20.688-4.598-36.943-3.938-48.764
		c0.651-11.821,0.981-18.391,0.981-19.705c1.314-9.196,4.268-18.549,8.868-28.076c4.598-9.525,10.178-17.235,16.749-23.147
		l131.025-131.025c9.195-9.195,19.705-13.793,31.526-13.793c8.536,0,16.089,2.459,22.652,7.388
		c6.57,4.929,12.151,11.004,16.75,18.227l105.411,199.981c5.91,10.508,7.553,22.007,4.927,34.481
		c-2.625,12.481-8.206,22.989-16.749,31.524l-48.27,48.27c-1.312,1.32-2.467,3.451-3.449,6.405
		c-0.984,2.955-1.479,5.424-1.479,7.388c2.625,13.795,8.535,29.555,17.733,47.285c7.884,15.768,20.035,34.977,36.454,57.639
		c16.419,22.651,39.732,48.763,69.946,78.315c29.553,30.214,55.821,53.691,78.811,70.441c22.982,16.741,42.191,29.058,57.629,36.941
		c15.43,7.876,27.258,12.639,35.465,14.281l12.309,2.46c1.313,0,3.449-0.495,6.404-1.478c2.957-0.982,5.094-2.13,6.406-3.45
		l56.152-57.134c11.828-10.509,25.615-15.767,41.375-15.767c11.168,0,20.033,1.973,26.598,5.91h0.99l190.131,112.311
		C1209.606,948.975,1217.811,959.806,1220.444,972.947L1220.444,972.947z M1220.444,972.947"/>
</g>
</svg>
