<?xml version="1.0" encoding="utf-8"?>
<!-- Generator: Adobe Illustrator 16.0.0, SVG Export Plug-In . SVG Version: 6.00 Build 0)  -->
<!DOCTYPE svg PUBLIC "-//W3C//DTD SVG 1.1//EN" "http://www.w3.org/Graphics/SVG/1.1/DTD/svg11.dtd">
<svg version="1.1" id="Layer_1" xmlns="http://www.w3.org/2000/svg" xmlns:xlink="http://www.w3.org/1999/xlink" x="0px" y="0px"
	 width="319.072px" height="464.893px" viewBox="-62.393 -134.868 319.072 464.893"
	 enable-background="new -62.393 -134.868 319.072 464.893" xml:space="preserve">
<g>
	<path fill="#359BC7" d="M173.191,209.654c0-48.615,83.488-105.685,83.488-205.023c0-76.992-69.586-137.551-157.461-139.411
		l-0.001-0.088c-0.696,0-1.381,0.038-2.074,0.043c-0.694-0.005-1.377-0.043-2.073-0.043l-0.002,0.088
		C7.196-132.92-62.393-72.362-62.393,4.631c0,99.338,83.489,156.408,83.489,205.023c-0.066,0.041,0,22.19,0,22.19h0.061v49.489
		c0,0,16.5,16.906,33.238,30.646c16.736,13.74,30.695,18.045,42.289,18.045h0.968c11.594,0,25.553-4.305,42.288-18.045
		c16.737-13.74,33.251-30.646,33.251-30.646v-54.692h-0.026C173.134,220.08,173.104,209.649,173.191,209.654z M-36.052,3.573
		c0-96.177,101.152-114.419,134.211-115.158c0.362-0.008,0.713-0.014,1.06-0.019c0.347,0.005,0.696,0.01,1.061,0.019
		c33.059,0.739,134.21,18.981,134.21,115.158c0,97.227-81.376,137.384-81.376,205.023h-32.345l23.926-122.813
		c16.255-0.252,33.225-8.132,33.225-25.039c0-7.147-4.619-17.778-17.343-17.778c-16.356,0-23.063,17.445-24.754,29.493
		c-8.063-2.205-19.338-7.314-30.431-15.872c2.811-2.713,6.771-5.638,9.642-8.781c10.268-12.655,7.364-27.849,4.719-32.679
		c-4.17-7.607-14.066-12.922-22.27-12.922c-8.205,0-18.104,5.315-22.272,12.922c-2.643,4.83-5.55,20.023,4.926,32.921
		c2.792,3.049,6.659,5.892,9.39,8.534c-11.114,8.575-22.353,13.674-30.392,15.879c-1.792-12.326-8.52-29.496-24.747-29.496
		c-12.725,0-17.344,10.631-17.344,17.778c0,16.904,16.96,24.784,33.213,25.039l23.939,122.813H43.208
		C43.208,149.412-36.052,106.082-36.052,3.573z M79.643,208.597L60.572,84.486c10.236-2.526,23.827-10.421,36.887-20.907
		c13.028,10.469,26.654,18.373,36.92,20.907l-19.061,124.111H79.643z M89.732,41.596c-4.573-6.146-5.741-11.884-3.378-16.591
		c2.347-4.667,7.485-7.188,11.128-7.188s8.781,2.521,11.125,7.188c2.366,4.708,1.197,10.445-3.188,16.352
		c-2.558,3.049-5.229,5.861-7.957,8.443C94.806,47.285,92.214,44.553,89.732,41.596z M146.242,73.694
		c1.091-6.35,4.598-20.319,14.333-20.319c6.136,0,6.896,5.186,6.936,7.371C167.511,71.333,153.472,73.356,146.242,73.694z
		 M48.709,73.694c-7.231-0.34-21.259-2.365-21.259-12.948c0-1.23,0.336-7.371,6.937-7.371C44.036,53.375,47.566,67.1,48.709,73.694z
		 M103.963,309.088l-0.003,0.122c-0.482,0-13.217,0-13.7,0l-0.002-0.122c-10.034-1.25-26.922-16.737-26.922-16.737
		c0.003,0,67.546,0,67.548,0C130.884,292.351,113.996,307.838,103.963,309.088z M148.433,276.038H46.316v-14.96h102.117V276.038z
		 M148.433,245.468H46.316v-14.96h102.117V245.468z"/>
</g>
</svg>
