<?xml version="1.0" encoding="utf-8"?>
<!-- Generator: Adobe Illustrator 16.0.0, SVG Export Plug-In . SVG Version: 6.00 Build 0)  -->
<!DOCTYPE svg PUBLIC "-//W3C//DTD SVG 1.1//EN" "http://www.w3.org/Graphics/SVG/1.1/DTD/svg11.dtd">
<svg version="1.1" id="Layer_1" xmlns="http://www.w3.org/2000/svg" xmlns:xlink="http://www.w3.org/1999/xlink" x="0px" y="0px"
	 width="43.998px" height="46.8px" viewBox="0 0 43.998 46.8" enable-background="new 0 0 43.998 46.8" xml:space="preserve">
<g>
	<g>
		<defs>
			<rect id="SVGID_1_" width="43.92" height="46.8"/>
		</defs>
		<clipPath id="SVGID_2_">
			<use xlink:href="#SVGID_1_"  overflow="visible"/>
		</clipPath>
		<path clip-path="url(#SVGID_2_)" fill="#FFFFFF" d="M43.328,41.774L32.484,30.498c2.789-3.317,4.316-7.489,4.316-11.832
			c0-10.145-8.254-18.399-18.403-18.399C8.254,0.267,0,8.521,0,18.666c0,10.147,8.254,18.401,18.398,18.401
			c3.809,0,7.442-1.147,10.543-3.332l10.93,11.367c0.457,0.478,1.07,0.738,1.73,0.738c0.621,0,1.21-0.238,1.66-0.671
			C44.219,44.252,44.246,42.731,43.328,41.774L43.328,41.774z M18.398,5.068C25.898,5.068,32,11.17,32,18.666
			c0,7.5-6.102,13.601-13.602,13.601c-7.496,0-13.597-6.101-13.597-13.601C4.801,11.17,10.902,5.068,18.398,5.068L18.398,5.068z
			 M18.398,5.068"/>
	</g>
</g>
</svg>
