<?xml version="1.0" encoding="utf-8"?>
<!-- Generator: Adobe Illustrator 16.0.4, SVG Export Plug-In . SVG Version: 6.00 Build 0)  -->
<!DOCTYPE svg PUBLIC "-//W3C//DTD SVG 1.1//EN" "http://www.w3.org/Graphics/SVG/1.1/DTD/svg11.dtd">
<svg version="1.1" id="Layer_1" xmlns="http://www.w3.org/2000/svg" xmlns:xlink="http://www.w3.org/1999/xlink" x="0px" y="0px"
	 width="194.557px" height="194.559px" viewBox="0 0 194.557 194.559" enable-background="new 0 0 194.557 194.559"
	 xml:space="preserve">
<g>
	<polygon fill="#FFFFFF" points="85.67,111.865 116.049,96.123 85.664,80.271 	"/>
	<path fill="#FFFFFF" d="M97.275,0C43.549,0,0,43.552,0,97.279s43.549,97.279,97.275,97.279c53.733,0,97.281-43.552,97.281-97.279
		S151.009,0,97.275,0z M153.502,101.527c0,9.1-1.123,18.199-1.123,18.199s-1.098,7.749-4.469,11.161
		c-4.277,4.479-9.07,4.501-11.268,4.764c-15.736,1.137-39.363,1.173-39.363,1.173s-29.236-0.268-38.234-1.13
		c-2.502-0.47-8.121-0.327-12.398-4.807c-3.371-3.412-4.469-11.161-4.469-11.161s-1.123-9.1-1.123-18.199v-8.531
		c0-9.1,1.123-18.199,1.123-18.199s1.098-7.749,4.469-11.161c4.277-4.479,9.07-4.501,11.268-4.763
		c15.736-1.139,39.34-1.139,39.34-1.139h0.049c0,0,23.604,0,39.34,1.139c2.197,0.262,6.99,0.283,11.268,4.763
		c3.371,3.412,4.469,11.161,4.469,11.161s1.123,9.1,1.123,18.199V101.527z"/>
</g>
</svg>
