<?xml version="1.0" encoding="utf-8"?>
<!-- Generator: Adobe Illustrator 16.0.0, SVG Export Plug-In . SVG Version: 6.00 Build 0)  -->
<!DOCTYPE svg PUBLIC "-//W3C//DTD SVG 1.1//EN" "http://www.w3.org/Graphics/SVG/1.1/DTD/svg11.dtd">
<svg version="1.1" id="Layer_1" xmlns="http://www.w3.org/2000/svg" xmlns:xlink="http://www.w3.org/1999/xlink" x="0px" y="0px"
	 width="559.382px" height="98.718px" viewBox="0 0 559.382 98.718" enable-background="new 0 0 559.382 98.718"
	 xml:space="preserve">
<g>
	<path fill="#19181C" d="M370.021,26.488c-1.056,0-2.036,0.477-2.69,1.31c-0.015,0.019-0.017,0.041-0.03,0.061l-32.716,43.425
		l-13.436-30.526c0-0.001,0-0.003-0.001-0.004c-0.001-0.002-0.003-0.005-0.004-0.007l-0.019-0.043
		c-0.011-0.024-0.026-0.044-0.038-0.067c-0.563-1.193-1.759-1.962-3.087-1.962c-1.382,0-2.62,0.823-3.154,2.098
		c-0.005,0.011-0.006,0.021-0.01,0.032c-0.002,0.005-0.006,0.01-0.008,0.016l-8.031,21.655l-34.548-34.911
		c-0.008-0.009-0.02-0.011-0.027-0.019c-0.643-0.669-1.53-1.057-2.459-1.057c-1.885,0-3.42,1.534-3.42,3.42
		c0,0.397,0.071,0.784,0.204,1.152c0.004,0.012,0.005,0.023,0.009,0.034l0.002,0.006v0.001h0.001l24.13,65.388
		c0.002,0.005,0.005,0.008,0.007,0.012c0.003,0.009,0.005,0.019,0.008,0.027c0.526,1.292,1.769,2.127,3.165,2.127
		c1.293,0,2.461-0.716,3.047-1.87c0.057-0.111,0.109-0.232,0.154-0.354c0,0,0-0.003,0.001-0.004
		c0.001-0.002,0.003-0.004,0.003-0.006l10.777-29.061l15.935,16.102l0.001,0.001c0.001,0.001,0.001,0.001,0.002,0.002l0.027,0.027
		c0.007,0.007,0.016,0.009,0.022,0.015c0.64,0.648,1.519,1.023,2.429,1.023c1.039,0,2.016-0.49,2.661-1.3
		c0.03-0.033,0.064-0.06,0.092-0.096l0.015-0.02l0.001-0.001c0,0,0,0,0-0.001l4.936-6.551l8.819,20.038
		c0.004,0.009,0.012,0.016,0.016,0.024c0.549,1.233,1.767,2.029,3.121,2.029c1.398,0,2.65-0.86,3.167-2.149
		c0.007-0.015,0.018-0.025,0.023-0.041l0.022-0.061c0.003-0.009,0.008-0.016,0.011-0.024c0.002-0.005,0.002-0.01,0.004-0.016
		l24.103-65.354c0.005-0.013,0.006-0.024,0.01-0.037c0.003-0.008,0.008-0.014,0.011-0.021c0.107-0.34,0.162-0.69,0.162-1.043
		C373.439,28.022,371.906,26.488,370.021,26.488z M294.554,95.486c-0.004,0.008-0.004,0.016-0.007,0.023
		c-0.009,0.021-0.021,0.038-0.029,0.06c-0.26,0.509-1.105,0.476-1.322-0.052l-24.118-65.354c0,0-0.001-0.002-0.002-0.003
		c0-0.001,0-0.003,0-0.004c-0.029-0.076-0.043-0.159-0.043-0.248c0-0.403,0.327-0.732,0.73-0.732c0.279,0,0.457,0.149,0.537,0.238
		c0.007,0.007,0.017,0.01,0.023,0.017c0.006,0.007,0.008,0.017,0.016,0.023l35.427,35.8L294.554,95.486z M326.873,81.519
		c-0.003,0.003-0.003,0.008-0.005,0.011c-0.003,0.004-0.008,0.006-0.011,0.01c-0.14,0.193-0.355,0.305-0.591,0.305
		c-0.271,0-0.448-0.144-0.529-0.229c-0.002-0.002-0.005-0.003-0.008-0.005c-0.002-0.002-0.002-0.005-0.004-0.007l-16.844-17.021
		l8.449-22.782c0.235-0.53,1.109-0.529,1.341,0.004l14.059,31.94L326.873,81.519z M345.256,95.526
		c-0.003-0.006-0.007-0.011-0.009-0.017l-9.422-21.407l33.644-44.657c0.003-0.004,0.003-0.009,0.006-0.013
		c0.141-0.159,0.334-0.257,0.546-0.257c0.403,0,0.731,0.329,0.731,0.732c0,0.074-0.013,0.149-0.036,0.226l-24.104,65.355
		C346.403,96.047,345.492,96.073,345.256,95.526z"/>
	<path fill="#19181C" d="M559.382,29.804c0-1.887-1.535-3.421-3.423-3.421c-0.904,0-1.773,0.37-2.412,1.007
		c-0.01,0.008-0.021,0.01-0.03,0.019l-30.204,28.867l-4.309-21.606c-0.001-0.006-0.001-0.013-0.002-0.019
		c-0.327-1.584-1.737-2.732-3.354-2.732c-1.263,0-2.419,0.692-3.018,1.807c-0.001,0.003-0.001,0.006-0.003,0.009
		c-0.001,0.002-0.003,0.003-0.004,0.005L491.65,73.907l-33.394-46.192c-0.007-0.01-0.019-0.015-0.025-0.023
		c-0.009-0.012-0.011-0.026-0.02-0.037c-0.654-0.809-1.625-1.271-2.664-1.271c-1.887,0-3.422,1.534-3.422,3.421
		c0,0.403,0.071,0.8,0.21,1.178c0.001,0.003,0.002,0.007,0.003,0.011l0.001,0.002v0.001c0,0,0,0,0,0.001l24.161,65.471
		c0.002,0.005,0.003,0.011,0.005,0.017c0.517,1.319,1.767,2.172,3.185,2.172c1.234,0,2.349-0.657,2.939-1.685
		c0.011-0.018,0.026-0.031,0.036-0.05l0.038-0.073c0.004-0.008,0.01-0.015,0.014-0.022c0.01-0.019,0.027-0.054,0.044-0.087
		l9.259-17.732l2.373,3.282c0.002,0.002,0.004,0.004,0.006,0.006c0.001,0.002,0.002,0.005,0.003,0.007
		c0.049,0.065,0.113,0.114,0.166,0.177c0.018,0.016,0.031,0.037,0.05,0.053c0.645,0.719,1.561,1.156,2.532,1.156
		c0.889,0,1.729-0.34,2.37-0.955c0.001-0.001,0.002-0.001,0.003-0.002l0.003-0.002c0.001-0.002,0.003-0.003,0.004-0.004
		s0.001-0.001,0.001-0.002L521.633,61.6l6.843,34.316c0,0.001,0,0.001,0,0.001c0.002,0.005,0.001,0.01,0.002,0.014
		c0.328,1.579,1.737,2.725,3.352,2.725c1.415,0,2.665-0.85,3.184-2.164c0.002-0.006,0.003-0.013,0.005-0.019
		c0.002-0.004,0.005-0.006,0.006-0.01l24.175-65.556c0.004-0.01,0.004-0.02,0.008-0.029c0.002-0.007,0.007-0.011,0.009-0.018
		C559.326,30.521,559.382,30.165,559.382,29.804z M480.334,95.579c-0.102,0.189-0.32,0.389-0.644,0.389
		c-0.298,0-0.56-0.177-0.674-0.45L454.86,30.061V30.06c-0.001-0.001-0.001-0.001-0.001-0.002c-0.03-0.081-0.046-0.167-0.046-0.254
		c0-0.404,0.33-0.733,0.734-0.733c0.222,0,0.428,0.1,0.569,0.271L490.26,76.57L480.334,95.579z M497.666,80.786
		c-0.001,0.001-0.001,0.002-0.002,0.003s-0.003,0.002-0.005,0.003c-0.304,0.296-0.841,0.254-1.097-0.091l-0.001-0.001l-3.15-4.357
		l21.588-41.346L515,34.996c0.101-0.188,0.324-0.391,0.648-0.391c0.344,0,0.642,0.242,0.717,0.578v0.001l4.645,23.291
		L497.666,80.786z M531.829,95.968c-0.346,0-0.647-0.245-0.718-0.581l-7.176-35.988l31.438-30.047
		c0.009-0.009,0.012-0.021,0.021-0.028c0.009-0.01,0.021-0.013,0.029-0.021c0.14-0.149,0.33-0.231,0.535-0.231
		c0.405,0,0.735,0.329,0.735,0.733c0,0.076-0.012,0.15-0.033,0.218l-24.149,65.484C532.4,95.787,532.132,95.968,531.829,95.968z"/>
	<path fill="#19181C" d="M412.848,26.477c-19.918,0-36.122,16.203-36.122,36.12s16.204,36.12,36.122,36.12
		c19.917,0,36.121-16.203,36.121-36.12S432.765,26.477,412.848,26.477z M412.848,96.029c-18.436,0-33.435-14.998-33.435-33.433
		s14.999-33.433,33.435-33.433s33.434,14.998,33.434,33.433S431.283,96.029,412.848,96.029z"/>
</g>
<path fill="#19181C" d="M79.138,62.62c0,18.423,14.986,33.411,33.406,33.411c10.584,0,20.319-4.865,26.709-13.348
	c0.445-0.594,1.289-0.711,1.88-0.266c0.593,0.447,0.712,1.289,0.266,1.882c-6.901,9.163-17.419,14.418-28.854,14.418
	c-19.902,0-36.093-16.194-36.093-36.098c0-19.904,16.19-36.099,36.093-36.099c11.463,0,21.987,5.266,28.871,14.443
	c0.445,0.594,0.324,1.436-0.269,1.881s-1.435,0.325-1.881-0.268c-6.372-8.498-16.112-13.369-26.722-13.369
	C94.124,29.209,79.138,44.197,79.138,62.62z M36.092,29.209c10.61,0,20.351,4.871,26.722,13.369
	c0.445,0.592,1.287,0.713,1.881,0.268s0.714-1.287,0.27-1.881c-6.885-9.178-17.408-14.443-28.872-14.443
	C16.19,26.521,0,42.716,0,62.62c0,19.903,16.19,36.098,36.092,36.098c11.436,0,21.953-5.255,28.854-14.418
	c0.445-0.593,0.328-1.435-0.266-1.882c-0.592-0.445-1.434-0.327-1.881,0.266c-6.389,8.482-16.123,13.348-26.708,13.348
	c-18.419,0-33.405-14.988-33.405-33.411S17.673,29.209,36.092,29.209z M191.14,96.031h-32.148c-1.176,0-2.133-0.957-2.133-2.134
	c0-0.397,0.109-0.784,0.316-1.118c0.008-0.015,0.017-0.028,0.025-0.043l34.041-53.568c0.018-0.027,0.035-0.057,0.049-0.086
	l0.066-0.118c0.334-0.601,1.115-2.007,1.115-4.146c0-4.574-3.723-8.297-8.297-8.297h-28.649c-0.741,0-1.343,0.602-1.343,1.344
	s0.602,1.344,1.343,1.344h28.649c3.094,0,5.609,2.517,5.609,5.609c0,1.441-0.505,2.354-0.776,2.842l-0.056,0.102l-34.055,53.586
	c-0.016,0.025-0.031,0.051-0.045,0.078c-0.445,0.746-0.681,1.598-0.681,2.472c0,2.657,2.161,4.82,4.819,4.82h32.148
	c0.742,0,1.342-0.602,1.342-1.344C192.481,96.633,191.882,96.031,191.14,96.031z"/>
<path fill="#FFDD00" d="M254.675,26.52h-20.033L249.2,11.959c1.05-1.049,1.05-2.75,0.002-3.799c-1.05-1.049-2.752-1.049-3.801,0
	l-13.217,13.217V2.687c0-1.483-1.203-2.687-2.686-2.687c-1.484,0-2.687,1.203-2.687,2.687v20.59L212.647,9.109
	c-0.525-0.523-1.375-0.523-1.899,0c-0.524,0.525-0.524,1.375,0,1.9l14.165,14.166h-20.586c-1.484,0-2.688,1.203-2.688,2.688
	c0,1.482,1.203,2.686,2.688,2.686h20.586l-14.166,14.164c-0.524,0.525-0.524,1.375,0,1.899c0.262,0.263,0.606,0.394,0.949,0.394
	c0.346,0,0.688-0.131,0.951-0.394l15.509-15.509v21.933c0,0.741,0.601,1.343,1.343,1.343s1.343-0.602,1.343-1.343V33.004
	l14.56,14.559c0.525,0.525,1.213,0.787,1.9,0.787s1.375-0.262,1.9-0.789c1.048-1.048,1.048-2.748-0.002-3.797l-14.559-14.559h20.033
	c0.742,0,1.344-0.602,1.344-1.342C256.019,27.12,255.417,26.52,254.675,26.52z"/>
</svg>
