<?xml version="1.0" encoding="utf-8"?>
<!-- Generator: Adobe Illustrator 16.0.0, SVG Export Plug-In . SVG Version: 6.00 Build 0)  -->
<!DOCTYPE svg PUBLIC "-//W3C//DTD SVG 1.1//EN" "http://www.w3.org/Graphics/SVG/1.1/DTD/svg11.dtd">
<svg version="1.1" id="Layer_1" xmlns="http://www.w3.org/2000/svg" xmlns:xlink="http://www.w3.org/1999/xlink" x="0px" y="0px"
	 width="522.219px" height="673.873px" viewBox="0 0 522.219 673.873" enable-background="new 0 0 522.219 673.873"
	 xml:space="preserve">
<g>
	<path fill="none" stroke="#231F20" stroke-width="1.4173" stroke-miterlimit="22.9256" d="M179.369,262.382
		c-8.312,28.448-34.395,48-64.032,48c-36.842,0-66.708-29.866-66.708-66.708c0,0,0,0,0,0"/>
	<path fill-rule="evenodd" clip-rule="evenodd" fill="#231F20" d="M131.321,245.087c0.064-0.752,0.728-1.309,1.479-1.245
		s1.309,0.728,1.244,1.48c-0.427,4.843-2.674,9.126-6.029,12.199c-3.356,3.072-7.818,4.933-12.679,4.933
		c-4.698,0-9.038-1.741-12.361-4.647c-3.32-2.903-5.622-6.974-6.249-11.631c-0.1-0.747,0.424-1.434,1.17-1.534
		c0.746-0.1,1.434,0.424,1.534,1.169c0.535,3.983,2.504,7.463,5.341,9.944c2.834,2.479,6.544,3.963,10.565,3.963
		c4.164,0,7.979-1.587,10.841-4.207C129.039,252.893,130.956,249.232,131.321,245.087z"/>
	<path fill-rule="evenodd" clip-rule="evenodd" fill="#231F20" d="M175.264,266.857c0.509-1.316,1.989-1.971,3.306-1.461
		c1.316,0.508,1.97,1.989,1.461,3.305c-5.167,13.335-14.167,24.398-25.446,32.123c-11.283,7.728-24.845,12.123-39.138,12.123
		c-18.653,0-35.634-7.393-48.116-19.447c-12.478-12.052-20.458-28.772-21.106-47.426c-0.043-1.41,1.064-2.59,2.474-2.634
		c1.41-0.044,2.59,1.064,2.634,2.474c0.6,17.262,7.989,32.74,19.544,43.901c11.555,11.16,27.285,18.004,44.57,18.004
		c13.247,0,25.81-4.068,36.254-11.222C162.147,289.442,170.482,279.2,175.264,266.857z"/>
	<path fill-rule="evenodd" clip-rule="evenodd" fill="#231F20" d="M48.215,296.445c-1.41-0.028-2.531-1.194-2.503-2.604
		c0.027-1.41,1.193-2.531,2.604-2.503c18.854,0.378,35.822,8.261,48.073,20.762c12.26,12.51,19.808,29.637,19.808,48.486
		c0,18.88-7.57,36.027-19.861,48.541c-12.284,12.505-29.293,20.374-48.181,20.71c-1.41,0.022-2.572-1.104-2.594-2.513
		c-0.022-1.41,1.104-2.572,2.513-2.594c17.483-0.312,33.235-7.604,44.616-19.189c11.374-11.578,18.378-27.458,18.378-44.955
		c0-17.468-6.982-33.327-18.326-44.9C81.388,304.102,65.671,296.796,48.215,296.445z"/>
	<path fill-rule="evenodd" clip-rule="evenodd" fill="#231F20" d="M48.065,344.578c-0.752-0.053-1.319-0.706-1.266-1.458
		c0.052-0.752,0.706-1.318,1.458-1.266c4.912,0.35,9.275,2.57,12.407,5.935c3.133,3.365,5.039,7.873,5.039,12.797
		c0,4.935-1.913,9.449-5.055,12.813c-3.144,3.367-7.52,5.585-12.445,5.922c-0.752,0.05-1.403-0.519-1.453-1.271
		c-0.05-0.753,0.519-1.403,1.271-1.453c4.208-0.288,7.946-2.182,10.63-5.056c2.684-2.875,4.317-6.735,4.317-10.956
		c0-4.213-1.626-8.065-4.301-10.938C55.992,346.774,52.264,344.877,48.065,344.578z"/>
	<path fill-rule="evenodd" clip-rule="evenodd" fill="#231F20" d="M46.922,305.196c-0.754,0-1.367-0.613-1.367-1.368
		s0.613-1.367,1.367-1.367c16.051,0,30.584,6.506,41.102,17.024s17.024,25.051,17.024,41.101c0,15.805-6.32,30.164-16.592,40.658
		c-10.266,10.488-24.487,17.111-40.293,17.449c-0.752,0.015-1.374-0.583-1.389-1.335c-0.014-0.753,0.583-1.375,1.335-1.39
		c15.06-0.321,28.613-6.636,38.401-16.637c9.783-9.993,15.802-23.678,15.802-38.746c0-15.296-6.2-29.144-16.223-39.167
		S62.219,305.196,46.922,305.196z"/>
	<path fill-rule="evenodd" clip-rule="evenodd" fill="#231F20" d="M176.052,374.672c0.66,0.359,0.904,1.187,0.545,1.848
		c-0.359,0.66-1.188,0.904-1.848,0.545c-3.017-1.647-5.463-4.053-7.152-6.899c-1.691-2.851-2.629-6.146-2.629-9.579
		c0-3.569,1.015-6.987,2.831-9.911c1.813-2.918,4.429-5.341,7.633-6.924c0.675-0.333,1.494-0.056,1.827,0.62
		c0.333,0.676,0.056,1.494-0.62,1.826c-2.735,1.352-4.971,3.424-6.522,5.92c-1.547,2.492-2.414,5.414-2.414,8.469
		c0,2.937,0.802,5.756,2.245,8.189C171.394,371.212,173.482,373.268,176.052,374.672z"/>
	<path fill-rule="evenodd" clip-rule="evenodd" fill="#231F20" d="M175.72,424.235c1.399,0.178,2.391,1.456,2.213,2.855
		c-0.177,1.398-1.456,2.39-2.854,2.213c-17.32-2.186-32.472-10.64-43.288-22.906c-10.821-12.271-17.313-28.361-17.313-45.812
		c0-18.156,7.018-34.778,18.564-47.187c11.544-12.406,27.619-20.599,45.734-21.903c1.41-0.099,2.635,0.963,2.734,2.374
		c0.1,1.41-0.963,2.635-2.373,2.734c-16.775,1.208-31.661,8.794-42.35,20.281c-10.688,11.485-17.183,26.878-17.183,43.701
		c0,16.162,6.012,31.063,16.033,42.426C145.662,414.38,159.692,422.214,175.72,424.235z"/>
	<path fill-rule="evenodd" clip-rule="evenodd" fill="#231F20" d="M175.609,412.345c0.743,0.115,1.253,0.812,1.138,1.555
		s-0.812,1.253-1.555,1.139c-13.407-2.107-25.049-8.937-33.335-18.629c-8.292-9.696-13.23-22.257-13.23-35.823
		c0-14.25,5.433-27.326,14.413-37.162c8.979-9.834,21.509-16.433,35.703-17.728c0.749-0.068,1.412,0.485,1.48,1.233
		c0.067,0.749-0.485,1.412-1.234,1.48c-13.485,1.23-25.393,7.502-33.929,16.853c-8.534,9.349-13.698,21.778-13.698,35.324
		c0,12.899,4.693,24.839,12.569,34.049C151.808,403.85,162.872,410.343,175.609,412.345z"/>
	<path fill-rule="evenodd" clip-rule="evenodd" fill="#231F20" d="M175.662,401.942c0.74,0.145,1.223,0.862,1.079,1.603
		c-0.144,0.741-0.862,1.224-1.603,1.079c-10.527-2.059-19.593-7.703-26.026-15.518s-10.235-17.795-10.235-28.521
		s3.802-20.706,10.235-28.52s15.5-13.459,26.026-15.518c0.74-0.144,1.458,0.339,1.603,1.079c0.145,0.741-0.338,1.458-1.079,1.603
		c-9.893,1.935-18.408,7.234-24.446,14.567c-6.037,7.333-9.604,16.707-9.604,26.789c0,10.083,3.567,19.456,9.604,26.789
		C157.255,394.709,165.77,400.008,175.662,401.942z"/>
	
		<path fill-rule="evenodd" clip-rule="evenodd" fill="#5BB947" stroke="#5BB947" stroke-width="0.216" stroke-miterlimit="22.9256" d="
		M227.098,312.01h-6.491v-51.843l-19.39,32.29l-19.472-32.29v51.843h-6.491v-64.906h6.382l19.471,32.291l19.58-32.291h6.41V312.01
		L227.098,312.01z M273.29,312.01h-6.815v-5.193c-3.949,3.462-8.438,5.193-13.467,5.193c-5.625,0-10.399-1.988-14.32-5.964
		c-3.921-3.975-5.882-8.748-5.882-14.319c0-5.625,1.961-10.412,5.882-14.36c3.921-3.948,8.695-5.923,14.32-5.923
		c4.976,0,9.465,1.704,13.467,5.112v-5.112h6.815V312.01L273.29,312.01z M266.474,291.727c0-3.732-1.325-6.923-3.962-9.574
		c-2.65-2.65-5.828-3.975-9.547-3.975c-3.718,0-6.882,1.325-9.506,3.975c-2.61,2.65-3.921,5.842-3.921,9.574
		c0,3.678,1.312,6.842,3.921,9.493c2.624,2.65,5.788,3.975,9.506,3.975c3.719,0,6.896-1.312,9.547-3.935
		C265.149,298.637,266.474,295.458,266.474,291.727L266.474,291.727z M317.777,312.01h-6.49v-4.949
		c-3.84,3.299-8.167,4.949-12.981,4.949c-5.409,0-10.006-1.907-13.793-5.72c-3.785-3.813-5.679-8.397-5.679-13.752
		c0-5.462,1.907-10.087,5.721-13.873c3.813-3.787,8.396-5.679,13.751-5.679c4.761,0,9.087,1.649,12.981,4.949v-30.831h6.49V312.01
		L317.777,312.01z M311.287,292.538c0-3.542-1.258-6.598-3.772-9.154c-2.516-2.556-5.585-3.827-9.209-3.827
		c-3.57,0-6.626,1.271-9.167,3.827c-2.542,2.556-3.813,5.612-3.813,9.154c0,3.489,1.271,6.518,3.813,9.074
		c2.541,2.555,5.597,3.827,9.167,3.827c3.569,0,6.626-1.258,9.169-3.787C310.016,299.124,311.287,296.081,311.287,292.538
		L311.287,292.538z M341.738,278.245c0.379,0.054-0.162,0.108-1.621,0.162c-1.895,0-3.922,0.785-6.086,2.353
		c-2.326,1.664-3.867,3.556-4.624,5.666c-0.162,0.324-0.352,0.811-0.568,1.46c-0.216,0.649-0.352,1.177-0.405,1.609
		c-0.055,0.433-0.108,0.865-0.162,1.298v21.216h-6.734v-40.485h6.734v5.03c3.408-2.827,7.193-4.449,11.357-4.869
		c0.759-0.108,1.082-0.162,0.974-0.162h1.136V278.245L341.738,278.245z M386.388,312.01h-6.813v-5.111
		c-3.949,3.408-8.438,5.111-13.468,5.111c-3.841,0-7.411-1.028-10.71-3.083c-3.841-2.38-6.599-5.76-8.276-10.142
		c-0.811-2.271-1.217-4.3-1.217-6.084v-21.175h6.734V292.7c0,1.136,0.324,2.488,0.974,4.057c1.189,2.866,3.016,5.057,5.504,6.572
		c2.095,1.298,4.421,1.947,6.95,1.947c2.744,0,5.26-0.758,7.518-2.271c2.488-1.731,4.26-4.192,5.341-7.383
		c0.379-1.136,0.596-2.137,0.65-3.002v-21.094h6.813V312.01L386.388,312.01z M431.121,319.474c0,1.677-0.406,3.57-1.217,5.679
		c-1.569,4.219-4.22,7.464-7.952,9.735c-3.19,2.001-6.626,3.002-10.304,3.002s-7.112-1.001-10.303-3.002
		c-3.732-2.271-6.383-5.516-7.951-9.735c-0.812-2.218-1.217-4.111-1.217-5.679V318.5h6.49c0,1.285,0.216,2.556,0.649,3.787
		c1.081,3.069,2.839,5.382,5.273,6.937c2.109,1.393,4.462,2.096,7.058,2.096c3.246,0,6.059-1.055,8.438-3.15
		c2.65-2.272,4.164-5.288,4.544-9.061v-12.048c-3.841,3.299-8.168,4.949-12.982,4.949c-5.408,0-10.006-1.907-13.792-5.72
		c-3.786-3.813-5.679-8.424-5.679-13.833c0-5.355,1.893-9.938,5.679-13.752s8.384-5.719,13.792-5.719
		c4.761,0,9.087,1.649,12.982,4.949v-4.949h6.49V319.474L431.121,319.474z M424.631,292.457c0-3.543-1.258-6.585-3.773-9.114
		c-2.515-2.529-5.585-3.786-9.209-3.786c-3.569,0-6.625,1.257-9.167,3.786s-3.813,5.571-3.813,9.114
		c0,3.542,1.271,6.599,3.813,9.155c2.542,2.555,5.598,3.827,9.167,3.827c3.57,0,6.626-1.258,9.168-3.787
		C423.359,299.124,424.631,296.053,424.631,292.457L424.631,292.457z M477.555,312.01h-6.815v-5.193
		c-3.948,3.462-8.438,5.193-13.468,5.193c-5.625,0-10.398-1.988-14.32-5.964c-3.921-3.975-5.882-8.748-5.882-14.319
		c0-5.625,1.961-10.412,5.882-14.36c3.922-3.948,8.695-5.923,14.32-5.923c4.976,0,9.466,1.704,13.468,5.112v-5.112h6.815V312.01
		L477.555,312.01z M470.74,291.727c0-3.732-1.324-6.923-3.962-9.574c-2.65-2.65-5.828-3.975-9.546-3.975
		c-3.719,0-6.883,1.325-9.507,3.975c-2.609,2.65-3.921,5.842-3.921,9.574c0,3.678,1.312,6.842,3.921,9.493
		c2.624,2.65,5.788,3.975,9.507,3.975c3.718,0,6.896-1.312,9.546-3.935C469.416,298.637,470.74,295.458,470.74,291.727z"/>
	<polygon fill-rule="evenodd" clip-rule="evenodd" fill="#231F20" points="238.617,356.378 210.261,356.378 210.261,414.07 
		203.843,414.07 203.843,356.378 175.487,356.378 175.487,349.879 238.617,349.879 	"/>
	
		<path fill-rule="evenodd" clip-rule="evenodd" fill="#231F20" stroke="#231F20" stroke-width="0.216" stroke-miterlimit="22.9256" d="
		M253.291,414.071h-6.815v-5.111c-3.949,3.408-8.438,5.111-13.468,5.111c-3.84,0-7.41-1.028-10.709-3.083
		c-3.84-2.38-6.599-5.761-8.276-10.142c-0.811-2.271-1.217-4.3-1.217-6.085v-21.175h6.734v21.175c0,1.136,0.324,2.488,0.974,4.057
		c1.189,2.867,3.015,5.057,5.503,6.571c2.096,1.299,4.421,1.947,6.951,1.947c2.745,0,5.259-0.757,7.517-2.271
		c2.489-1.731,4.26-4.192,5.342-7.383c0.378-1.136,0.595-2.137,0.649-3.002v-21.094h6.815V414.071L253.291,414.071z
		 M296.155,394.519c0,5.463-1.906,10.087-5.732,13.873c-3.827,3.787-8.425,5.68-13.793,5.68c-4.814,0-9.127-1.65-12.927-4.948v4.948
		h-6.49v-64.905h6.49v30.83c3.854-3.3,8.167-4.949,12.927-4.949c5.423,0,10.033,1.907,13.833,5.72
		C294.262,384.58,296.155,389.164,296.155,394.519L296.155,394.519z M289.665,394.519c0-3.489-1.258-6.518-3.772-9.072
		c-2.515-2.557-5.584-3.827-9.208-3.827c-3.57,0-6.627,1.271-9.169,3.827c-2.541,2.555-3.813,5.583-3.813,9.072
		c0,3.543,1.271,6.599,3.813,9.154c2.542,2.555,5.599,3.826,9.169,3.826c3.568,0,6.625-1.257,9.168-3.786
		C288.394,401.185,289.665,398.116,289.665,394.519L289.665,394.519z M339.1,393.788h-33.669c0,0.055,0,0.217,0,0.486
		c0,1.461,0.271,2.867,0.812,4.22c2.434,5.841,6.652,8.762,12.656,8.762c5.138,0,9.032-2.244,11.683-6.733h7.383
		c-1.677,4.489-4.435,7.95-8.275,10.385c-3.299,2.108-6.896,3.164-10.79,3.164c-5.625,0-10.412-1.987-14.36-5.964
		c-3.948-3.975-5.922-8.748-5.922-14.319c0-5.625,1.974-10.411,5.922-14.36c3.948-3.948,8.735-5.922,14.36-5.922
		c6.49,0,11.791,2.569,15.901,7.707c1.73,2.164,2.921,4.57,3.57,7.221c0.486,1.894,0.729,3.272,0.729,4.138V393.788L339.1,393.788z
		 M330.582,387.055c-2.596-4.544-6.49-6.815-11.683-6.815s-9.087,2.271-11.683,6.815H330.582z"/>
</g>
</svg>
